<?xml version="1.0" encoding="UTF-8" standalone="no"?>
<!-- Created with Inkscape (http://www.inkscape.org/) -->

<svg
   xmlns:osb="http://www.openswatchbook.org/uri/2009/osb"
   xmlns:dc="http://purl.org/dc/elements/1.1/"
   xmlns:cc="http://creativecommons.org/ns#"
   xmlns:rdf="http://www.w3.org/1999/02/22-rdf-syntax-ns#"
   xmlns:svg="http://www.w3.org/2000/svg"
   xmlns="http://www.w3.org/2000/svg"
   xmlns:xlink="http://www.w3.org/1999/xlink"
   xmlns:sodipodi="http://sodipodi.sourceforge.net/DTD/sodipodi-0.dtd"
   xmlns:inkscape="http://www.inkscape.org/namespaces/inkscape"
   width="24"
   height="24"
   id="svg2"
   version="1.1"
   inkscape:version="0.91 r13725"
   sodipodi:docname="youtube-indicator-dark-sync3.svg">
  <defs
     id="defs4">
    <linearGradient
       id="linearGradient4024">
      <stop
         style="stop-color:#500000;stop-opacity:1;"
         offset="0"
         id="stop4026" />
      <stop
         style="stop-color:#ff0000;stop-opacity:1;"
         offset="1"
         id="stop4028" />
    </linearGradient>
    <linearGradient
       inkscape:collect="always"
       xlink:href="#linearGradient3931"
       id="linearGradient3985"
       gradientUnits="userSpaceOnUse"
       x1="291.78726"
       y1="410.04071"
       x2="326.81876"
       y2="410.04071" />
    <linearGradient
       id="linearGradient3931"
       osb:paint="solid">
      <stop
         style="stop-color:#ffffff;stop-opacity:1;"
         offset="0"
         id="stop3933" />
    </linearGradient>
    <linearGradient
       inkscape:collect="always"
       xlink:href="#linearGradient3931"
       id="linearGradient3979"
       gradientUnits="userSpaceOnUse"
       x1="291.78726"
       y1="410.04071"
       x2="326.81876"
       y2="410.04071" />
    <linearGradient
       id="linearGradient3165"
       osb:paint="solid">
      <stop
         style="stop-color:#ffffff;stop-opacity:1;"
         offset="0"
         id="stop3167" />
    </linearGradient>
    <linearGradient
       inkscape:collect="always"
       xlink:href="#linearGradient3931"
       id="linearGradient3981"
       gradientUnits="userSpaceOnUse"
       x1="291.78726"
       y1="410.04071"
       x2="326.81876"
       y2="410.04071" />
    <linearGradient
       id="linearGradient3170"
       osb:paint="solid">
      <stop
         style="stop-color:#ffffff;stop-opacity:1;"
         offset="0"
         id="stop3172" />
    </linearGradient>
    <linearGradient
       inkscape:collect="always"
       xlink:href="#linearGradient3931"
       id="linearGradient3983"
       gradientUnits="userSpaceOnUse"
       x1="291.78726"
       y1="410.04071"
       x2="326.81876"
       y2="410.04071" />
    <linearGradient
       id="linearGradient3175"
       osb:paint="solid">
      <stop
         style="stop-color:#ffffff;stop-opacity:1;"
         offset="0"
         id="stop3177" />
    </linearGradient>
    <linearGradient
       inkscape:collect="always"
       xlink:href="#linearGradient3931"
       id="linearGradient3233"
       gradientUnits="userSpaceOnUse"
       x1="291.78726"
       y1="410.04071"
       x2="326.81876"
       y2="410.04071" />
    <linearGradient
       inkscape:collect="always"
       xlink:href="#linearGradient3931"
       id="linearGradient3235"
       gradientUnits="userSpaceOnUse"
       x1="291.78726"
       y1="410.04071"
       x2="326.81876"
       y2="410.04071" />
    <linearGradient
       inkscape:collect="always"
       xlink:href="#linearGradient3931"
       id="linearGradient3237"
       gradientUnits="userSpaceOnUse"
       x1="291.78726"
       y1="410.04071"
       x2="326.81876"
       y2="410.04071" />
    <linearGradient
       inkscape:collect="always"
       xlink:href="#linearGradient3931"
       id="linearGradient3239"
       gradientUnits="userSpaceOnUse"
       x1="291.78726"
       y1="410.04071"
       x2="326.81876"
       y2="410.04071" />
    <linearGradient
       inkscape:collect="always"
       xlink:href="#linearGradient3931"
       id="linearGradient3242"
       gradientUnits="userSpaceOnUse"
       x1="291.78726"
       y1="410.04071"
       x2="326.81876"
       y2="410.04071"
       gradientTransform="matrix(0.4325777,0,0,0.53948177,-106.19991,118.72257)" />
    <linearGradient
       inkscape:collect="always"
       xlink:href="#linearGradient3931"
       id="linearGradient3245"
       gradientUnits="userSpaceOnUse"
       x1="291.78726"
       y1="410.04071"
       x2="326.81876"
       y2="410.04071"
       gradientTransform="matrix(0.4325777,0,0,0.53948177,-106.19991,118.72257)" />
    <linearGradient
       inkscape:collect="always"
       xlink:href="#linearGradient3931"
       id="linearGradient3248"
       gradientUnits="userSpaceOnUse"
       x1="291.78726"
       y1="410.04071"
       x2="326.81876"
       y2="410.04071"
       gradientTransform="matrix(0.4325777,0,0,0.53948177,-106.19991,118.72257)" />
  </defs>
  <sodipodi:namedview
     id="base"
     pagecolor="#ffffff"
     bordercolor="#666666"
     borderopacity="1.0"
     inkscape:pageopacity="0.0"
     inkscape:pageshadow="2"
     inkscape:zoom="22.293854"
     inkscape:cx="16.858161"
     inkscape:cy="1.3344691"
     inkscape:document-units="px"
     inkscape:current-layer="layer1"
     showgrid="false"
     fit-margin-top="8"
     fit-margin-left="8"
     fit-margin-right="8"
     fit-margin-bottom="8"
     inkscape:window-width="1920"
     inkscape:window-height="1056"
     inkscape:window-x="0"
     inkscape:window-y="24"
     inkscape:window-maximized="1" />
  <metadata
     id="metadata7">
    <rdf:RDF>
      <cc:Work
         rdf:about="">
        <dc:format>image/svg+xml</dc:format>
        <dc:type
           rdf:resource="http://purl.org/dc/dcmitype/StillImage" />
        <dc:title></dc:title>
      </cc:Work>
    </rdf:RDF>
  </metadata>
  <g
     inkscape:label="Capa 1"
     inkscape:groupmode="layer"
     id="layer1"
     transform="translate(-7.3571463,-348.64789)">
    <path
       style="fill:#3c3c3c;fill-opacity:1;stroke:none"
       d="m 12.39048,352.21456 c -2.226726,0 -4.0333329,2.03258 -4.0333329,4.55714 l 0,7.75238 c 0,2.52456 1.8066069,4.55714 4.0333329,4.55714 l 13.985714,0 c 2.226725,0 3.980952,-2.03258 3.980952,-4.55714 l 0,-7.75238 c 0,-2.52456 -1.754227,-4.55714 -3.980952,-4.55714 l -13.985714,0 z m 7.019047,1.83333 0.733334,0 0,4.76667 c 0.162925,-0.4666 0.325657,-0.84346 0.471428,-1.04762 0.06859,-0.10694 0.13233,-0.18418 0.209524,-0.26191 0.07715,-0.0778 0.176164,-0.0989 0.261905,-0.15714 0.171492,-0.10694 0.335162,-0.20952 0.523809,-0.20952 0.334405,3e-5 0.65989,0.18356 0.942857,0.52381 0.28296,0.33052 0.474225,0.83856 0.628572,1.51904 0.154343,0.6708 0.261901,1.41633 0.261905,2.25238 -4e-6,1.2541 -0.197979,2.29332 -0.52381,3.09048 -0.334413,0.81661 -0.787407,1.20476 -1.361905,1.20476 -0.197227,0 -0.360892,-0.0599 -0.523809,-0.15714 -0.145745,-0.0778 -0.317087,-0.21489 -0.471429,-0.41905 -0.128631,-0.20414 -0.264704,-0.54209 -0.419047,-1.04762 l 0,0.62857 c -0.0087,0.16528 -0.05238,0.28295 -0.05238,0.41905 0,0.13611 0.0087,0.25974 0,0.36667 l -0.733334,0 c 0.0087,-0.13611 0,-0.2635 0,-0.41905 0.0087,-0.16527 0,-0.38175 0,-0.57619 0.0087,-0.19442 0,-0.31588 0,-0.47143 0.0087,-0.15555 0.05238,-0.35476 0.05238,-0.47143 0.0087,-0.12638 0,-0.23649 0,-0.31428 l 0,-0.15715 0,-9.0619 z m -9.4285699,0.41905 4.9761889,0 0,0.73333 -2.042857,0 0,10.31905 -0.838095,0 0,-10.31905 -2.0952369,0 0,-0.73333 z m 16.7619039,2.67143 c 0.342983,10e-6 0.668468,0.15669 0.942857,0.41904 0.274387,0.25277 0.474224,0.61771 0.628571,1.15238 0.162892,0.52499 0.261902,1.28023 0.261905,2.25239 l 0,0.41904 -3.195238,0 c 0,1.05966 0.109428,1.93853 0.366666,2.61905 0.257242,0.69022 0.63697,1.01467 1.1,0.99524 0.342984,0 0.587562,-0.0907 0.733334,-0.31429 0.154327,-0.23331 0.209524,-0.51351 0.209524,-0.78571 l 0,-0.26191 0.733333,0 0,0.26191 c -5e-6,0.30136 -0.107573,0.58913 -0.261905,0.89048 -0.154343,0.31108 -0.371336,0.57779 -0.628571,0.73333 -0.248665,0.15555 -0.503689,0.20952 -0.838095,0.20952 -0.668821,0 -1.211296,-0.4076 -1.571429,-1.20476 -0.368708,-0.79716 -0.576191,-1.81317 -0.576191,-3.03809 0,-1.26379 0.190335,-2.27386 0.576191,-3.09048 0.403006,-0.82633 0.918824,-1.25713 1.519048,-1.25714 z m -12.466667,0.2619 0.785714,0 0,4.81905 c 0,1.26381 0.09041,2.05201 0.261905,2.30476 0.162926,0.26249 0.362754,0.36667 0.628571,0.36667 0.214365,0 0.431351,-0.11395 0.628572,-0.36667 0.197204,-0.23331 0.351383,-0.59071 0.471428,-1.04762 0.120032,-0.46663 0.157143,-1.09827 0.157143,-1.88571 l 0,-4.19048 0.733334,0 0,8.11905 -0.733334,0 0,-1.30953 c -0.154343,0.42777 -0.31709,0.68632 -0.471428,0.89048 -0.145779,0.20414 -0.317094,0.36451 -0.471429,0.47143 -0.145778,0.0972 -0.274216,0.15714 -0.471428,0.15714 -0.411582,0 -0.764655,-0.21056 -1.04762,-0.62857 -0.282961,-0.41804 -0.471428,-1.26398 -0.471428,-2.56667 l 0,-5.13333 z m 7.123809,0.47143 c -0.240092,2e-5 -0.42278,0.17991 -0.628571,0.47143 -0.205791,0.29166 -0.368534,0.6933 -0.471429,1.25714 -0.05144,0.28194 -0.131413,0.56967 -0.157142,0.89048 -0.01715,0.3111 0,0.65499 0,0.99524 0,1.03048 0.09993,1.87265 0.314285,2.51428 0.214367,0.66107 0.539848,0.99524 0.942857,0.99524 0.36013,0 0.64181,-0.30718 0.890477,-0.89048 0.240084,-0.55413 0.366663,-1.43301 0.366666,-2.61904 -3e-6,-1.38043 -0.118009,-2.32305 -0.366666,-2.82858 -0.248667,-0.52496 -0.556068,-0.78569 -0.890477,-0.78571 z m 5.290477,0.10476 c -0.274389,2e-5 -0.537052,0.24727 -0.785715,0.73333 -0.240092,0.4861 -0.39426,1.16792 -0.471428,2.04286 l 2.461905,0 0,-0.20952 c -4e-6,-0.47636 -0.04566,-0.90122 -0.157143,-1.30953 -0.102902,-0.42774 -0.238985,-0.73869 -0.419048,-0.94285 -0.188643,-0.21387 -0.397061,-0.31427 -0.628571,-0.31429 z"
       id="rect3096-0"
       inkscape:connector-curvature="0" />
    <g
       transform="matrix(0.0222216,0.03848894,-0.03848894,0.0222216,23.334549,346.20025)"
       id="refresh"
       style="fill:#dfdbd3;fill-opacity:1">
      <path
         inkscape:connector-curvature="0"
         d="M 383.434,172.502 C 358.098,114.261 301.436,76.854 237.573,76.854 c -65.309,0 -125,40.928 -148.514,101.827 l 49.5,19.117 c 15.672,-40.617 55.469,-67.894 99.014,-67.894 42.02,0 79.197,24.386 96.408,62.332 l -36.117,14.428 92.352,53.279 27.01,-100.933 -33.792,13.492 z"
         id="path4334"
         style="fill:#dfdbd3;fill-opacity:1" />
      <path
         inkscape:connector-curvature="0"
         d="m 237.573,342.101 c -41.639,0 -79.615,-25.115 -96.592,-62.819 L 176.585,265.519 85.198,213.4 57.223,311.649 91.303,298.477 c 24.852,58.018 82.859,96.671 146.27,96.671 65.551,0 123.598,-39.336 147.871,-100.196 L 336.176,275.3 c -16.195,40.577 -54.888,66.801 -98.603,66.801 z"
         id="path4336"
         style="fill:#dfdbd3;fill-opacity:1" />
    </g>
  </g>
</svg>
