<?xml version="1.0" encoding="UTF-8" standalone="no"?>
<!-- Created with Inkscape (http://www.inkscape.org/) -->

<svg
   xmlns:osb="http://www.openswatchbook.org/uri/2009/osb"
   xmlns:dc="http://purl.org/dc/elements/1.1/"
   xmlns:cc="http://creativecommons.org/ns#"
   xmlns:rdf="http://www.w3.org/1999/02/22-rdf-syntax-ns#"
   xmlns:svg="http://www.w3.org/2000/svg"
   xmlns="http://www.w3.org/2000/svg"
   xmlns:xlink="http://www.w3.org/1999/xlink"
   xmlns:sodipodi="http://sodipodi.sourceforge.net/DTD/sodipodi-0.dtd"
   xmlns:inkscape="http://www.inkscape.org/namespaces/inkscape"
   width="64"
   height="64"
   id="svg2"
   version="1.1"
   inkscape:version="0.48.4 r9939"
   sodipodi:docname="youtube-indicator.svg">
  <defs
     id="defs4">
    <linearGradient
       id="linearGradient4024">
      <stop
         style="stop-color:#500000;stop-opacity:1;"
         offset="0"
         id="stop4026" />
      <stop
         style="stop-color:#ff0000;stop-opacity:1;"
         offset="1"
         id="stop4028" />
    </linearGradient>
    <linearGradient
       inkscape:collect="always"
       xlink:href="#linearGradient3931"
       id="linearGradient3985"
       gradientUnits="userSpaceOnUse"
       x1="291.78726"
       y1="410.04071"
       x2="326.81876"
       y2="410.04071" />
    <linearGradient
       id="linearGradient3931"
       osb:paint="solid">
      <stop
         style="stop-color:#ffffff;stop-opacity:1;"
         offset="0"
         id="stop3933" />
    </linearGradient>
    <linearGradient
       inkscape:collect="always"
       xlink:href="#linearGradient3931"
       id="linearGradient3979"
       gradientUnits="userSpaceOnUse"
       x1="291.78726"
       y1="410.04071"
       x2="326.81876"
       y2="410.04071" />
    <linearGradient
       id="linearGradient3165"
       osb:paint="solid">
      <stop
         style="stop-color:#ffffff;stop-opacity:1;"
         offset="0"
         id="stop3167" />
    </linearGradient>
    <linearGradient
       inkscape:collect="always"
       xlink:href="#linearGradient3931"
       id="linearGradient3981"
       gradientUnits="userSpaceOnUse"
       x1="291.78726"
       y1="410.04071"
       x2="326.81876"
       y2="410.04071" />
    <linearGradient
       id="linearGradient3170"
       osb:paint="solid">
      <stop
         style="stop-color:#ffffff;stop-opacity:1;"
         offset="0"
         id="stop3172" />
    </linearGradient>
    <linearGradient
       inkscape:collect="always"
       xlink:href="#linearGradient3931"
       id="linearGradient3983"
       gradientUnits="userSpaceOnUse"
       x1="291.78726"
       y1="410.04071"
       x2="326.81876"
       y2="410.04071" />
    <linearGradient
       id="linearGradient3175"
       osb:paint="solid">
      <stop
         style="stop-color:#ffffff;stop-opacity:1;"
         offset="0"
         id="stop3177" />
    </linearGradient>
    <linearGradient
       inkscape:collect="always"
       xlink:href="#linearGradient3931"
       id="linearGradient3233"
       gradientUnits="userSpaceOnUse"
       x1="291.78726"
       y1="410.04071"
       x2="326.81876"
       y2="410.04071" />
    <linearGradient
       inkscape:collect="always"
       xlink:href="#linearGradient3931"
       id="linearGradient3235"
       gradientUnits="userSpaceOnUse"
       x1="291.78726"
       y1="410.04071"
       x2="326.81876"
       y2="410.04071" />
    <linearGradient
       inkscape:collect="always"
       xlink:href="#linearGradient3931"
       id="linearGradient3237"
       gradientUnits="userSpaceOnUse"
       x1="291.78726"
       y1="410.04071"
       x2="326.81876"
       y2="410.04071" />
    <linearGradient
       inkscape:collect="always"
       xlink:href="#linearGradient3931"
       id="linearGradient3239"
       gradientUnits="userSpaceOnUse"
       x1="291.78726"
       y1="410.04071"
       x2="326.81876"
       y2="410.04071" />
    <linearGradient
       inkscape:collect="always"
       xlink:href="#linearGradient3931"
       id="linearGradient3242"
       gradientUnits="userSpaceOnUse"
       x1="291.78726"
       y1="410.04071"
       x2="326.81876"
       y2="410.04071"
       gradientTransform="matrix(0.4325777,0,0,0.53948177,-106.19991,118.72257)" />
    <linearGradient
       inkscape:collect="always"
       xlink:href="#linearGradient3931"
       id="linearGradient3245"
       gradientUnits="userSpaceOnUse"
       x1="291.78726"
       y1="410.04071"
       x2="326.81876"
       y2="410.04071"
       gradientTransform="matrix(0.4325777,0,0,0.53948177,-106.19991,118.72257)" />
    <linearGradient
       inkscape:collect="always"
       xlink:href="#linearGradient3931"
       id="linearGradient3248"
       gradientUnits="userSpaceOnUse"
       x1="291.78726"
       y1="410.04071"
       x2="326.81876"
       y2="410.04071"
       gradientTransform="matrix(0.4325777,0,0,0.53948177,-106.19991,118.72257)" />
  </defs>
  <sodipodi:namedview
     id="base"
     pagecolor="#ffffff"
     bordercolor="#666666"
     borderopacity="1.0"
     inkscape:pageopacity="0.0"
     inkscape:pageshadow="2"
     inkscape:zoom="4.5893121"
     inkscape:cx="-77.389534"
     inkscape:cy="-22.995398"
     inkscape:document-units="px"
     inkscape:current-layer="layer1"
     showgrid="false"
     fit-margin-top="8"
     fit-margin-left="8"
     fit-margin-right="8"
     fit-margin-bottom="8"
     inkscape:window-width="1920"
     inkscape:window-height="1054"
     inkscape:window-x="0"
     inkscape:window-y="24"
     inkscape:window-maximized="1" />
  <metadata
     id="metadata7">
    <rdf:RDF>
      <cc:Work
         rdf:about="">
        <dc:format>image/svg+xml</dc:format>
        <dc:type
           rdf:resource="http://purl.org/dc/dcmitype/StillImage" />
        <dc:title></dc:title>
      </cc:Work>
    </rdf:RDF>
  </metadata>
  <g
     inkscape:label="Capa 1"
     inkscape:groupmode="layer"
     id="layer1"
     transform="translate(-7.3571463,-308.64789)">
    <path
       style="fill:#3c3c3c;fill-opacity:1;stroke:none"
       d="m 20.779416,318.15907 c -5.937922,0 -10.755528,5.4202 -10.755528,12.15234 l 0,20.67296 c 0,6.73214 4.817606,12.15234 10.755528,12.15234 l 37.295144,0 c 5.937918,0 10.615845,-5.4202 10.615845,-12.15234 l 0,-20.67296 c 0,-6.73214 -4.677927,-12.15234 -10.615845,-12.15234 l -37.295144,0 z m 18.717411,4.88886 1.955553,0 0,12.71109 c 0.434466,-1.24426 0.868416,-2.24922 1.257138,-2.79364 0.182906,-0.28518 0.352879,-0.49115 0.558729,-0.69843 0.205733,-0.20747 0.46977,-0.26373 0.698412,-0.41904 0.457311,-0.28517 0.893763,-0.55872 1.39682,-0.55872 0.891745,8e-5 1.759703,0.4895 2.51428,1.39683 0.754558,0.88138 1.264596,2.23615 1.676187,4.05076 0.411581,1.7888 0.698401,3.77687 0.698412,6.00633 -1.1e-5,3.34426 -0.527943,6.11551 -1.396823,8.24126 -0.891766,2.17762 -2.099747,3.21269 -3.631738,3.21269 -0.525937,0 -0.962376,-0.15974 -1.39682,-0.41904 -0.388653,-0.20747 -0.845564,-0.57304 -1.257141,-1.11747 -0.343015,-0.54437 -0.705876,-1.44557 -1.117456,-2.79364 l 0,1.67618 c -0.0232,0.44074 -0.13968,0.75453 -0.13968,1.11746 0,0.36296 0.0232,0.69264 0,0.97779 l -1.955552,0 c 0.0232,-0.36296 0,-0.70267 0,-1.11747 0.0232,-0.44072 0,-1.01799 0,-1.5365 0.0232,-0.51845 0,-0.84234 0,-1.25714 0.0232,-0.4148 0.139679,-0.94603 0.139679,-1.25715 0.0232,-0.33701 0,-0.63063 0,-0.83807 l 0,-0.41907 0,-24.16501 z m -25.14279,1.11747 13.269804,0 0,1.95554 -5.447605,0 0,27.5174 -2.234914,0 0,-27.5174 -5.587285,0 0,-1.95554 z m 44.698299,7.12379 c 0.914619,3e-5 1.782577,0.41784 2.514279,1.11744 0.731697,0.67405 1.264594,1.64722 1.676185,3.07301 0.434378,1.39997 0.698404,3.41393 0.698412,6.00635 l 0,1.11744 -8.520614,0 c 0,2.82575 0.291808,5.1694 0.977774,6.98412 0.685977,1.84058 1.698582,2.70578 2.933326,2.65396 0.914622,0 1.566828,-0.24186 1.955552,-0.8381 0.411538,-0.62216 0.55873,-1.36936 0.55873,-2.09522 l 0,-0.69843 1.955549,0 0,0.69843 c -1.3e-5,0.80362 -0.28686,1.57101 -0.698411,2.37461 -0.411581,0.82954 -0.990227,1.54077 -1.676185,1.95554 -0.663105,0.4148 -1.343168,0.55872 -2.234915,0.55872 -1.783518,0 -3.230114,-1.08693 -4.190467,-3.21269 -0.983218,-2.12575 -1.536505,-4.83511 -1.536505,-8.10155 0,-3.3701 0.507559,-6.06361 1.536505,-8.24126 1.07468,-2.20354 2.450192,-3.35234 4.050785,-3.35237 z m -33.244362,0.6984 2.095232,0 0,12.85077 c 0,3.37015 0.241093,5.47201 0.698411,6.14601 0.434469,0.69997 0.967342,0.97779 1.676186,0.97779 0.571638,0 1.150266,-0.30387 1.676187,-0.97779 0.525876,-0.62216 0.937019,-1.57522 1.257139,-2.79365 0.320084,-1.24434 0.419046,-2.92871 0.419046,-5.02854 l 0,-11.17459 1.955553,0 0,21.65075 -1.955553,0 0,-3.49207 c -0.41158,1.14071 -0.845571,1.83018 -1.257138,2.3746 -0.388743,0.54438 -0.845582,0.97203 -1.257141,1.25715 -0.38874,0.2592 -0.73124,0.41904 -1.257138,0.41904 -1.097549,0 -2.039075,-0.5615 -2.793646,-1.67619 -0.754561,-1.11477 -1.257138,-3.3706 -1.257138,-6.84443 l 0,-13.68885 z m 18.996776,1.25715 c -0.640244,5e-5 -1.12741,0.47975 -1.676185,1.25714 -0.548775,0.77776 -0.982755,1.84879 -1.257141,3.35236 -0.137173,0.75184 -0.350434,1.51912 -0.419044,2.37461 -0.04573,0.8296 0,1.74664 0,2.65397 0,2.74794 0.266479,4.99372 0.838091,6.70473 0.571644,1.76285 1.439591,2.65396 2.514279,2.65396 0.960344,0 1.711489,-0.81914 2.3746,-2.3746 0.640222,-1.47768 0.977765,-3.82135 0.977773,-6.98409 -8e-6,-3.68114 -0.31469,-6.19479 -0.977773,-7.54286 -0.663111,-1.39989 -1.482845,-2.09517 -2.3746,-2.09522 z m 14.107904,0.27935 c -0.731703,6e-5 -1.432135,0.65939 -2.095235,1.95555 -0.640244,1.29626 -1.051358,3.11444 -1.257138,5.44761 l 6.565063,0 0,-0.55872 c -10e-6,-1.27029 -0.121759,-2.40325 -0.419047,-3.49207 -0.274404,-1.14064 -0.637291,-1.96984 -1.117458,-2.51426 -0.503047,-0.57032 -1.058827,-0.83805 -1.676185,-0.83811 z"
       id="rect3096"
       inkscape:connector-curvature="0" />
  </g>
</svg>
